# xmcd
#
# Track frame offsets:
#	150
#	19283
#	49475
#
# Disc length: 2206 seconds
#
# Revision: 1
# Processed by: cddbd v1.4PL0 Copyright (c) Steve Scherf et al.
# Submitted via: audiograbber 1.81.02
#
DISCID=24089c03
DTITLE=Renato Zero - Innocente [CDSingle)
DYEAR=2002
DGENRE=Ballad
TTITLE0=Innocente
TTITLE1=Libera
TTITLE2=Dati Traccia
EXTD=
EXTT0=
EXTT1=
EXTT2=
PLAYORDER=
